<?xml version="1.0" encoding="UTF-8"?>
<svg width="40px" height="40px" viewBox="0 0 40 40" version="1.1" xmlns="http://www.w3.org/2000/svg" xmlns:xlink="http://www.w3.org/1999/xlink">
    <!-- Generator: Sketch 40.1 (33804) - http://www.bohemiancoding.com/sketch -->
    <title>blue-d_top</title>
    <desc>Created with Sketch.</desc>
    <defs>
        <rect id="path-1" x="1" y="1" width="38" height="38" rx="19"></rect>
        <mask id="mask-2" maskContentUnits="userSpaceOnUse" maskUnits="objectBoundingBox" x="0" y="0" width="38" height="38" fill="white">
            <use xlink:href="#path-1"></use>
        </mask>
    </defs>
    <g id="Page-1" stroke="none" stroke-width="1" fill="none" fill-rule="evenodd">
        <g id="blue-d_top" transform="translate(20.000000, 20.000000) rotate(-180.000000) translate(-20.000000, -20.000000) ">
            <g id="Group" transform="translate(0.000000, -0.000000)">
                <rect id="Rectangle" fill="#2E75B5" x="0" y="0" width="40" height="40" rx="20"></rect>
                <use id="Rectangle" stroke="#FFFFFF" mask="url(#mask-2)" stroke-width="3" xlink:href="#path-1"></use>
            </g>
            <path d="M18.2773438,23.8476562 C18.3424482,23.9127607 18.375,24.010416 18.375,24.140625 C18.375,24.270834 18.3424482,24.3684893 18.2773438,24.4335937 C15.4452983,27.0052212 14.013021,28.3072915 13.9804688,28.3398437 C13.9153643,28.4049482 13.817709,28.4375 13.6875,28.4375 C13.557291,28.4375 13.4596357,28.4049482 13.3945313,28.3398437 L9.09765625,24.4335937 C8.90234277,24.2382803 8.90234277,24.0429697 9.09765625,23.8476562 C9.29296973,23.6523428 9.48828027,23.6523428 9.68359375,23.8476562 L13.296875,27.1191406 L13.296875,13.203125 C13.296875,12.942707 13.427082,12.8125 13.6875,12.8125 C13.947918,12.8125 14.078125,12.942707 14.078125,13.203125 L14.078125,27.1191406 L17.6914063,23.8476562 C17.8867197,23.6523428 18.0820303,23.6523428 18.2773438,23.8476562 L18.2773438,23.8476562 Z" id="ion-ios-arrow-thin-down---Ionicons" fill="#FFFFFF"></path>
            <path d="M30.2773438,23.8476562 C30.3424482,23.9127607 30.375,24.010416 30.375,24.140625 C30.375,24.270834 30.3424482,24.3684893 30.2773438,24.4335937 C27.4452983,27.0052212 26.013021,28.3072915 25.9804688,28.3398437 C25.9153643,28.4049482 25.817709,28.4375 25.6875,28.4375 C25.557291,28.4375 25.4596357,28.4049482 25.3945313,28.3398437 L21.0976563,24.4335937 C20.9023428,24.2382803 20.9023428,24.0429697 21.0976563,23.8476562 C21.2929697,23.6523428 21.4882803,23.6523428 21.6835938,23.8476562 L25.296875,27.1191406 L25.296875,13.203125 C25.296875,12.942707 25.427082,12.8125 25.6875,12.8125 C25.947918,12.8125 26.078125,12.942707 26.078125,13.203125 L26.078125,27.1191406 L29.6914063,23.8476562 C29.8867197,23.6523428 30.0820303,23.6523428 30.2773438,23.8476562 L30.2773438,23.8476562 Z" id="ion-ios-arrow-thin-down---Ionicons" fill="#FFFFFF"></path>
        </g>
    </g>
</svg>