<?xml version="1.0" encoding="UTF-8"?>
<svg width="40px" height="40px" viewBox="0 0 40 40" version="1.1" xmlns="http://www.w3.org/2000/svg" xmlns:xlink="http://www.w3.org/1999/xlink">
    <!-- Generator: Sketch 40.1 (33804) - http://www.bohemiancoding.com/sketch -->
    <title>blue_down</title>
    <desc>Created with Sketch.</desc>
    <defs>
        <rect id="path-1" x="1" y="1" width="38" height="38" rx="19"></rect>
        <mask id="mask-2" maskContentUnits="userSpaceOnUse" maskUnits="objectBoundingBox" x="0" y="0" width="38" height="38" fill="white">
            <use xlink:href="#path-1"></use>
        </mask>
    </defs>
    <g id="Page-1" stroke="none" stroke-width="1" fill="none" fill-rule="evenodd">
        <g id="blue_down">
            <g id="Group">
                <rect id="Rectangle" fill="#2E75B5" x="0" y="0" width="40" height="40" rx="20"></rect>
                <use id="Rectangle" stroke="#FFFFFF" mask="url(#mask-2)" stroke-width="3" xlink:href="#path-1"></use>
            </g>
            <path d="M24.2773437,23.8476562 C24.3424482,23.9127607 24.375,24.010416 24.375,24.140625 C24.375,24.270834 24.3424482,24.3684893 24.2773437,24.4335938 C21.4452983,27.0052212 20.013021,28.3072915 19.9804687,28.3398438 C19.9153643,28.4049482 19.817709,28.4375 19.6875,28.4375 C19.557291,28.4375 19.4596357,28.4049482 19.3945312,28.3398438 L15.0976562,24.4335938 C14.9023428,24.2382803 14.9023428,24.0429697 15.0976562,23.8476562 C15.2929697,23.6523428 15.4882803,23.6523428 15.6835937,23.8476562 L19.296875,27.1191406 L19.296875,13.203125 C19.296875,12.942707 19.427082,12.8125 19.6875,12.8125 C19.947918,12.8125 20.078125,12.942707 20.078125,13.203125 L20.078125,27.1191406 L23.6914062,23.8476562 C23.8867197,23.6523428 24.0820303,23.6523428 24.2773437,23.8476562 L24.2773437,23.8476562 Z" id="ion-ios-arrow-thin-down---Ionicons" fill="#FFFFFF"></path>
        </g>
    </g>
</svg>